<svg width="512" height="512" viewBox="0 0 512 512" fill="none" xmlns="http://www.w3.org/2000/svg">
<path d="M501.344 202.664H362.656V42.664C362.656 36.773 357.891 32 352 32H10.664C4.773 32 0 36.773 0 42.664V320C0 325.891 4.773 330.656 10.664 330.656H42.664V394.656L157.867 330.656H213.336V426.656C213.336 432.562 218.109 437.344 224 437.344H394.656L469.344 480V437.344H501.344C507.219 437.344 512 432.563 512 426.656V213.336C512 207.445 507.219 202.664 501.344 202.664ZM157.867 309.344H152.336L147.508 312.016L64 358.406V330.656V309.344H42.664H21.336V53.336H341.344V309.344H157.867ZM490.656 416H469.344H448V437.344V443.25L405.25 418.812L400.344 416H394.656H234.664V330.656H352C357.891 330.656 362.656 325.89 362.656 320V224H490.656V416Z" fill="white"/>
<path d="M234.665 149.313C234.602 114.93 215.672 96 181.352 96C164.641 96 151.368 101.07 141.899 111.055C126.946 126.836 127.961 148.977 128.016 149.914L128.032 149.906C128.329 155.531 132.97 160 138.665 160C144.556 160 149.337 155.227 149.337 149.336C149.337 149.164 149.314 148.992 149.306 148.82H149.322C149.314 148.679 148.838 134.632 157.486 125.625C162.767 120.125 170.798 117.336 181.353 117.336C194.033 117.336 202.572 120.414 207.47 126.766C211.345 131.782 213.314 139.383 213.337 149.352C213.345 156.5 207.204 165.68 196.04 175.211C186.313 183.516 176.313 189.039 176.228 189.086L170.673 192.117L170.657 223.984H170.688V223.992C170.688 229.883 175.469 234.656 181.36 234.656C187.251 234.656 192.024 229.883 192.024 223.992C192.024 223.781 192.008 223.578 191.993 223.367L192.001 204.547C205.032 196.453 234.712 175.172 234.665 149.313Z" fill="white"/>
<path d="M181.336 245.336C175.445 245.336 170.664 250.109 170.664 256C170.664 261.891 175.445 266.664 181.336 266.664C187.227 266.664 192 261.891 192 256C192 250.109 187.227 245.336 181.336 245.336Z" fill="white"/>
</svg>
