<svg width="512" height="512" viewBox="0 0 512 512" fill="none" xmlns="http://www.w3.org/2000/svg">
<g clip-path="url(#clip0_17_27)">
<path d="M237.327 256.121C258.795 241.887 279.373 229.183 279.373 200.278C279.373 172.466 259.67 154.278 229.89 154.278C198.343 154.278 178.422 175.309 178.422 208.153V212.09H202.734C203.172 194.138 206.672 175.747 229.218 175.747C244.546 175.747 253.967 185.606 253.967 201.59C253.968 222.824 235.578 232.465 220.25 242.762C194.188 260.278 175.579 274.074 174.485 309.097H279.155V286.995H204.484C209.734 274.292 226.156 263.34 237.327 256.121Z" fill="white"/>
<path d="M386.029 251.731V154.498H362.373V154.497L296.671 248.012V272.761H361.717L361.936 309.097H386.029V272.761H405.513V251.731H386.029ZM362.155 251.731H317.264L362.155 185.388V251.731Z" fill="white"/>
<path d="M440.685 71.311C393.153 23.78 330.826 0 268.53 0C206.218 0 143.907 23.765 96.361 71.312C72.361 95.312 54.455 123.093 42.565 152.717C42.424 153.029 42.096 153.873 42.096 153.873C41.752 154.935 41.565 156.061 41.565 157.217C41.565 163.108 46.331 167.889 52.221 167.889C56.94 167.889 60.94 164.827 62.346 160.577L62.377 160.593C62.471 160.343 62.565 160.109 62.658 159.874C73.814 132.328 90.236 107.609 111.454 86.391C132.673 65.188 157.392 48.767 184.922 37.595C211.531 26.814 239.656 21.329 268.53 21.329C297.389 21.329 325.513 26.813 352.123 37.595C379.669 48.767 404.403 65.188 425.606 86.391C446.808 107.61 463.23 132.328 474.402 159.874C485.199 186.483 490.668 214.607 490.668 243.482C490.668 272.34 485.199 300.473 474.402 327.067C463.23 354.629 446.808 379.347 425.606 400.565C404.387 421.753 379.668 438.19 352.123 449.346C337.185 455.408 321.764 459.784 305.999 462.44L312.498 455.94C317.373 451.065 317.373 443.159 312.498 438.315L254.733 380.535C252.295 378.097 249.092 376.879 245.905 376.879C242.717 376.879 239.514 378.098 237.077 380.535L209.468 408.128C206.046 411.566 205.046 416.503 206.437 420.816C202.781 421.941 198.609 422.722 193.906 422.878C173.188 423.472 149.454 411.003 125.235 386.785C100.845 362.41 88.705 339.442 89.127 318.567C89.221 313.661 90.033 309.317 91.174 305.567C92.44 305.973 93.752 306.192 95.064 306.192C98.252 306.192 101.439 304.973 103.876 302.536L131.485 274.934C136.36 270.059 136.36 262.154 131.485 257.279L73.72 199.498C71.282 197.076 68.079 195.857 64.892 195.857C61.689 195.857 58.501 197.076 56.064 199.498L28.455 227.107C23.955 231.623 23.627 238.716 27.455 243.607L20.799 250.263C-13.623 284.684 -11.013 356.129 72.439 439.565C155.876 523.033 227.328 525.627 261.749 491.221L268.405 484.565C270.655 486.315 273.358 487.221 276.077 487.221C277.311 487.221 278.561 487.033 279.749 486.659C338.264 483.971 395.997 460.315 440.685 415.628C535.776 320.565 535.776 166.388 440.685 71.311ZM64.893 220.856L110.142 266.105L95.064 281.183L49.799 235.934L64.893 220.856ZM246.656 476.126C233.625 489.157 213.438 493.626 189.813 488.72C167.876 484.158 132.314 469.314 87.518 424.501C42.721 379.689 27.862 344.128 23.3 322.19C18.394 298.565 22.862 278.37 35.878 265.354L42.471 258.761L74.205 290.503C70.877 297.597 68.127 306.628 67.814 317.472C67.017 344.597 81.252 372.971 110.141 401.876C138.266 429.97 165.906 444.22 192.374 444.22C193.093 444.22 193.812 444.22 194.546 444.189C205.374 443.877 214.405 441.127 221.499 437.814L253.248 469.533L246.656 476.126ZM276.077 462.22L230.827 416.939L245.905 401.877L291.155 447.127L276.077 462.22Z" fill="white"/>
</g>
<defs>
<clipPath id="clip0_17_27">
<rect width="512.008" height="512.008" fill="white"/>
</clipPath>
</defs>
</svg>
