<svg width="512" height="512" viewBox="0 0 512 512" fill="none" xmlns="http://www.w3.org/2000/svg">
<g clip-path="url(#clip0_16_66)">
<path d="M501.332 0.00195312C499.004 0.00195312 496.848 0.759953 495.098 2.03295L495.082 2.02495L399.52 71.087L379.223 146.86L90.738 69.557L13.441 358.049C7.738 356.533 1.894 359.908 0.363002 365.596C-1.153 371.284 2.222 377.127 7.91 378.658L245.457 442.314C242.723 472.72 262.145 501.626 292.661 509.814C298.208 511.283 303.786 512.002 309.255 512.002C337.521 512.002 363.38 493.143 371.036 464.549C379.224 434.033 363.895 402.768 336.177 389.94L399.833 152.385L418.177 83.932L507.583 19.315V19.307C510.254 17.369 512.004 14.229 512.004 10.666C512.004 4.77495 507.223 0.00195312 501.332 0.00195312ZM219.253 126.096L260.457 137.135L244.55 196.526L234.675 187.776L226.706 180.698L216.253 182.839L203.331 185.48L219.253 126.096ZM346.176 426.658C351.864 436.533 353.379 448.017 350.426 459.033C345.442 477.658 328.504 490.658 309.254 490.658C305.551 490.658 301.816 490.174 298.176 489.189C275.457 483.111 261.926 459.658 268.004 436.939C273.004 418.314 289.926 405.314 309.176 405.314C312.895 405.314 316.629 405.798 320.27 406.783C331.27 409.721 340.473 416.783 346.176 426.658ZM315.598 384.299C313.457 384.08 311.317 383.971 309.176 383.971C284.27 383.971 261.238 398.627 250.879 421.674L34.035 363.564L105.816 95.689L198.644 120.556L179.316 192.697L197.16 208.517L220.535 203.736L238.379 219.564L261.739 214.783L281.067 142.642L373.708 167.462L315.598 384.299Z" fill="white"/>
<path d="M312.223 438.111C306.535 436.595 300.692 439.97 299.161 445.658C297.645 451.346 301.02 457.189 306.708 458.72C312.396 460.251 318.239 456.861 319.77 451.173C321.301 445.485 317.926 439.627 312.223 438.111Z" fill="white"/>
</g>
<defs>
<clipPath id="clip0_16_66">
<rect width="512.004" height="512.004" fill="white"/>
</clipPath>
</defs>
</svg>
