<svg width="512" height="512" viewBox="0 0 512 512" fill="none" xmlns="http://www.w3.org/2000/svg">
<path d="M120 8C113.635 8 107.53 10.5286 103.029 15.0294C98.5286 19.5303 96 25.6348 96 32V480C96 486.365 98.5286 492.47 103.029 496.971C107.53 501.471 113.635 504 120 504H392C398.365 504 404.47 501.471 408.971 496.971C413.471 492.47 416 486.365 416 480V32C416 25.6348 413.471 19.5303 408.971 15.0294C404.47 10.5286 398.365 8 392 8H120ZM293.76 24L289.76 40H222.24L218.24 24H293.76ZM225.12 488C226.962 481.221 230.984 475.237 236.565 470.97C242.146 466.704 248.975 464.392 256 464.392C263.025 464.392 269.854 466.704 275.435 470.97C281.016 475.237 285.038 481.221 286.88 488H225.12ZM400 32V480C400 482.122 399.157 484.157 397.657 485.657C396.157 487.157 394.122 488 392 488H303.28C301.331 476.875 295.522 466.794 286.874 459.53C278.226 452.265 267.294 448.283 256 448.283C244.706 448.283 233.774 452.265 225.126 459.53C216.478 466.794 210.669 476.875 208.72 488H120C117.878 488 115.843 487.157 114.343 485.657C112.843 484.157 112 482.122 112 480V32C112 29.8783 112.843 27.8434 114.343 26.3431C115.843 24.8429 117.878 24 120 24H201.76L208 49.92C208.438 51.695 209.471 53.2664 210.926 54.3727C212.382 55.4789 214.173 56.0532 216 56H296C297.827 56.0532 299.618 55.4789 301.074 54.3727C302.529 53.2664 303.562 51.695 304 49.92L310.24 24H392C394.122 24 396.157 24.8429 397.657 26.3431C399.157 27.8434 400 29.8783 400 32Z" fill="white"/>
<path d="M376 72H136C133.878 72 131.843 72.8429 130.343 74.3431C128.843 75.8434 128 77.8783 128 80V424C128 426.122 128.843 428.157 130.343 429.657C131.843 431.157 133.878 432 136 432H376C378.122 432 380.157 431.157 381.657 429.657C383.157 428.157 384 426.122 384 424V80C384 77.8783 383.157 75.8434 381.657 74.3431C380.157 72.8429 378.122 72 376 72ZM368 416H144V88H368V416Z" fill="white"/>
<path d="M248 328V360H264V328C274.609 328 284.783 323.786 292.284 316.284C299.786 308.783 304 298.609 304 288C304 277.391 299.786 267.217 292.284 259.716C284.783 252.214 274.609 248 264 248V200C270.365 200 276.47 202.529 280.971 207.029C285.471 211.53 288 217.635 288 224V240H304V224C304 213.391 299.786 203.217 292.284 195.716C284.783 188.214 274.609 184 264 184V152H248V184C237.391 184 227.217 188.214 219.716 195.716C212.214 203.217 208 213.391 208 224C208 234.609 212.214 244.783 219.716 252.284C227.217 259.786 237.391 264 248 264V312C241.635 312 235.53 309.471 231.029 304.971C226.529 300.47 224 294.365 224 288V272H208V288C208 293.253 209.035 298.454 211.045 303.307C213.055 308.16 216.001 312.57 219.716 316.284C223.43 319.999 227.84 322.945 232.693 324.955C237.546 326.965 242.747 328 248 328ZM264 264C270.365 264 276.47 266.529 280.971 271.029C285.471 275.53 288 281.635 288 288C288 294.365 285.471 300.47 280.971 304.971C276.47 309.471 270.365 312 264 312V264ZM224 224C224 217.635 226.529 211.53 231.029 207.029C235.53 202.529 241.635 200 248 200V248C241.635 248 235.53 245.471 231.029 240.971C226.529 236.47 224 230.365 224 224Z" fill="white"/>
</svg>
